# xmcd
#
# Track frame offsets: 
#        150
#        34763
#        76546
#        117853
#        161337
#        203527
#        251210
#        273375
#        292542
#
# Disc length: 4554 seconds
#
# Revision: 0
# Processed by: cddbd v1.5.2PL0 Copyright (c) Steve Scherf et al.
# Submitted via: ExactAudioCopy v0.95b4
#
DISCID=6711c809
DTITLE=Michael Landau - Hopmunk Tavern, Sebastopol, CA Cd1 (June 4, 20
DTITLE=11)
DYEAR=2011
DGENRE=Blues
TTITLE0=?
TTITLE1=Worried Life Blues
TTITLE2=?
TTITLE3=?
TTITLE4=?
TTITLE5=Underwear
TTITLE6=Trouble In Mind
TTITLE7=The Crystal Ship
TTITLE8=I'm Buzzed 
EXTD=
EXTT0=
EXTT1=
EXTT2=
EXTT3=
EXTT4=
EXTT5=
EXTT6=
EXTT7=
EXTT8=
PLAYORDER=
